# xmcd CD database file
#
# Track frame offsets:
#	150
#	22295
#	27152
#
# Disc length: 633 seconds
#
# Revision: 7
# Processed by: cddbd v1.5PL3 Copyright (c) Steve Scherf et al.
# Submitted via: CDex 1.50
#
DISCID=1f027703
DTITLE=山崎まさよし - 明日の風
DYEAR=2000
DGENRE=Blues
TTITLE0=明日の風
TTITLE1=mud skiffle track VIII
TTITLE2=カタログ
EXTD=YEAR: 2000
EXTT0=
EXTT1=
EXTT2=
PLAYORDER=
